<svg width="40" height="55" viewBox="0 0 40 55" fill="none" xmlns="http://www.w3.org/2000/svg">
<g clip-path="url(#clip0_31_144)">
<path d="M0 44.2148L0.331719 43.7505L16.0198 13.9854L16.053 13.6703L9.1375 0.68134C8.55781 -0.406685 6.92656 -0.131554 6.73656 1.08646L0 44.2148Z" fill="#FFC24A"/>
<path d="M21.0946 23.4947L26.2438 18.2218L21.093 8.38987C20.6041 7.45918 19.239 7.45636 18.7552 8.38987L16.0032 13.6374V14.0842L21.0944 23.4947H21.0946Z" fill="#F4BD62"/>
<path d="M0 44.2144L0.150312 44.0631L0.696563 43.8413L20.7711 23.8431L21.0255 23.1508L16.0177 13.6089L0 44.2144Z" fill="#F6820C"/>
<path d="M21.7377 54.2998L39.9056 44.1684L34.7175 12.219C34.5552 11.2194 33.3287 10.8243 32.6131 11.541L0 44.2143L18.0637 54.299C18.6252 54.6125 19.2575 54.7771 19.9006 54.7772C20.5437 54.7774 21.1761 54.613 21.7377 54.2998Z" fill="#FDE068"/>
<path d="M39.7428 44.0835L34.594 12.3767C34.4331 11.3846 33.4131 10.9742 32.7029 11.6855L0.201538 44.1522L18.067 54.1369C18.6242 54.448 19.2517 54.6114 19.8899 54.6115C20.528 54.6117 21.1556 54.4486 21.7129 54.1378L39.7429 44.0833L39.7428 44.0835Z" fill="#FCCA3F"/>
<path d="M21.7375 54.0014C21.1759 54.3145 20.5435 54.4789 19.9005 54.4787C19.2575 54.4786 18.6252 54.314 18.0637 54.0006L0.145435 44.0609L0.00012207 44.2144L18.0637 54.2991C18.6252 54.6126 19.2575 54.7772 19.9006 54.7773C20.5436 54.7775 21.176 54.6131 21.7376 54.2999L39.9056 44.1685L39.8611 43.8948L21.7376 54.0015L21.7375 54.0014Z" fill="#EEAB37"/>
</g>
<defs>
<clipPath id="clip0_31_144">
<rect width="40" height="54.8387" fill="white"/>
</clipPath>
</defs>
</svg>
