<svg width="40" height="40" viewBox="0 0 40 40" fill="none" xmlns="http://www.w3.org/2000/svg">
<path d="M7.3776 34.0013L4.56885 2.5H35.4313L32.6188 33.9963L19.9813 37.5L7.3776 34.0013Z" fill="#E44F26"/>
<path d="M20 34.8225L30.2125 31.9913L32.615 5.07629H20V34.8225Z" fill="#F1662A"/>
<path d="M20 16.7587H14.8875L14.535 12.8025H20V8.93872H10.3125L10.405 9.97622L11.3538 20.6225H20V16.7587ZM20 26.7925L19.9825 26.7975L15.68 25.6362L15.405 22.555H11.5262L12.0675 28.62L19.9825 30.8175L20 30.8125V26.7925Z" fill="#EBEBEB"/>
<path d="M19.9863 16.7587V20.6225H24.7438L24.2963 25.6337L19.9863 26.7962V30.8162L27.9076 28.62L27.9651 27.9675L28.8726 17.7962L28.9676 16.7587H19.9863ZM19.9863 8.93872V12.8025H29.3188L29.3963 11.935L29.5726 9.97622L29.6651 8.93872H19.9863Z" fill="white"/>
</svg>
