<svg width="40" height="40" viewBox="0 0 40 40" fill="none" xmlns="http://www.w3.org/2000/svg">
<path d="M20 37.5C19.5278 37.5002 19.0639 37.376 18.655 37.14L14.375 34.6063C13.7362 34.2488 14.0475 34.1225 14.2587 34.0488C14.9381 33.8389 15.5885 33.5449 16.195 33.1738C16.2457 33.1503 16.3016 33.1401 16.3574 33.1443C16.4132 33.1484 16.467 33.1668 16.5137 33.1975L19.8025 35.1513C19.8637 35.1837 19.9319 35.2006 20.0012 35.2006C20.0705 35.2006 20.1387 35.1837 20.2 35.1513L33.025 27.7488C33.085 27.7128 33.1346 27.6619 33.169 27.6009C33.2034 27.54 33.2214 27.4712 33.2212 27.4013V12.5938C33.2213 12.5227 33.203 12.4528 33.1682 12.3908C33.1334 12.3289 33.0832 12.2769 33.0225 12.24L20.1975 4.84375C20.137 4.80969 20.0687 4.7918 19.9993 4.7918C19.9299 4.7918 19.8617 4.80969 19.8012 4.84375L6.98371 12.2425C6.92257 12.2787 6.8718 12.33 6.83633 12.3915C6.80085 12.4531 6.78187 12.5227 6.78121 12.5938V27.395C6.78139 27.4648 6.80011 27.5333 6.83548 27.5935C6.87084 27.6537 6.92157 27.7034 6.98246 27.7375L10.5 29.7675C12.4062 30.72 13.5737 29.5975 13.5737 28.47V13.8563C13.5737 13.7568 13.6132 13.6614 13.6835 13.5911C13.7539 13.5208 13.8493 13.4813 13.9487 13.4813H15.5737C15.6732 13.4813 15.7685 13.5208 15.8389 13.5911C15.9092 13.6614 15.9487 13.7568 15.9487 13.8563V28.4713C15.9487 31.015 14.5637 32.4713 12.1512 32.4713C11.1104 32.4894 10.086 32.2111 9.19746 31.6688L5.82621 29.735C5.41694 29.4967 5.07736 29.1552 4.84134 28.7445C4.60533 28.3339 4.48116 27.8686 4.48121 27.395V12.5938C4.47999 12.1194 4.60365 11.6531 4.83974 11.2417C5.07583 10.8303 5.41605 10.4883 5.82621 10.25L18.6525 2.845C19.0656 2.61896 19.529 2.50049 20 2.50049C20.4709 2.50049 20.9343 2.61896 21.3475 2.845L34.1725 10.25C34.5817 10.4879 34.9214 10.8289 35.1576 11.2391C35.3938 11.6492 35.5183 12.1142 35.5187 12.5875V27.395C35.518 27.8686 35.3934 28.3338 35.1572 28.7443C34.921 29.1548 34.5815 29.4964 34.1725 29.735L21.3475 37.14C20.9378 37.3764 20.473 37.5006 20 37.5Z" fill="#83CD29"/>
<path d="M17.5674 22.4413C17.5674 22.3418 17.6069 22.2464 17.6772 22.1761C17.7475 22.1058 17.8429 22.0663 17.9424 22.0663H19.6011C19.6898 22.0666 19.7754 22.0982 19.8429 22.1557C19.9104 22.2131 19.9554 22.2926 19.9699 22.38C20.2199 24.0688 20.9699 24.92 24.3611 24.92C27.0624 24.92 28.2136 24.3088 28.2136 22.875C28.2136 22.0488 27.8874 21.435 23.6886 21.0238C20.1786 20.6763 18.0086 19.8988 18.0086 17.0938C18.0086 14.5063 20.1899 12.9625 23.8461 12.9625C27.9549 12.9625 29.9886 14.3888 30.2461 17.4488C30.2501 17.4999 30.2435 17.5512 30.2268 17.5997C30.2101 17.6481 30.1837 17.6926 30.1491 17.7305C30.1146 17.7683 30.0726 17.7986 30.0259 17.8196C29.9792 17.8406 29.9286 17.8518 29.8774 17.8525H28.2074C28.1236 17.8514 28.0426 17.8222 27.9774 17.7696C27.9121 17.717 27.8664 17.6441 27.8474 17.5625C27.4486 15.7863 26.4724 15.2188 23.8474 15.2188C20.8974 15.2188 20.5549 16.2463 20.5549 17.0163C20.5549 17.9488 20.9599 18.2213 24.9424 18.7475C28.8836 19.2688 30.7561 20.0063 30.7561 22.7763C30.7561 25.5713 28.4261 27.1713 24.3624 27.1713C18.7436 27.1788 17.5674 24.6025 17.5674 22.4413Z" fill="#83CD29"/>
</svg>
