<svg width="40" height="40" viewBox="0 0 40 40" fill="none" xmlns="http://www.w3.org/2000/svg">
<g opacity="0.6">
<path d="M30.8333 15.85C29.5833 15.4195 28.4801 14.6455 27.6499 13.6167C26.735 12.4704 25.57 11.5486 24.2441 10.9217C22.9182 10.2949 21.4664 9.97959 19.9999 10C18.0272 9.86031 16.0742 10.4688 14.5299 11.7042C12.9856 12.9396 11.9633 14.7114 11.6666 16.6667C12.251 15.6888 13.1307 14.9215 14.1789 14.4752C15.2271 14.029 16.3899 13.9268 17.4999 14.1833C18.7477 14.6264 19.8492 15.4049 20.6833 16.4333C21.6032 17.5705 22.7704 18.4828 24.096 19.1008C25.4217 19.7189 26.8708 20.0264 28.3333 20C30.306 20.1397 32.2589 19.5313 33.8032 18.2958C35.3475 17.0604 36.3699 15.2886 36.6666 13.3333C36.0927 14.323 35.2159 15.1019 34.1655 15.555C33.1152 16.0082 31.9469 16.1116 30.8333 15.85ZM9.16659 24.15C10.4165 24.5805 11.5198 25.3545 12.3499 26.3833C13.2648 27.5296 14.4298 28.4515 15.7558 29.0783C17.0817 29.7052 18.5334 30.0204 19.9999 30C21.9726 30.1397 23.9256 29.5313 25.4699 28.2958C27.0142 27.0604 28.0365 25.2886 28.3333 23.3333C27.7488 24.3113 26.8692 25.0786 25.8209 25.5248C24.7727 25.9711 23.6099 26.0733 22.4999 25.8167C21.2521 25.3737 20.1506 24.5951 19.3166 23.5667C18.3942 22.4324 17.2265 21.5221 15.9014 20.9043C14.5764 20.2865 13.1284 19.9773 11.6666 20C9.69386 19.8603 7.74089 20.4688 6.19659 21.7042C4.6523 22.9396 3.62999 24.7114 3.33325 26.6667C3.9071 25.6771 4.78393 24.8982 5.83431 24.445C6.88468 23.9919 8.05293 23.8884 9.16659 24.15Z" fill="#1EB5EB"/>
</g>
</svg>
